<mxfile host="app.diagrams.net" modified="2024-02-06T17:37:32.184Z" agent="Mozilla/5.0 (Windows NT 10.0; Win64; x64; rv:122.0) Gecko/20100101 Firefox/122.0" version="23.1.1" etag="N3Ypz1c2349GYFkvl0pa" type="github">
  <diagram name="Page-1" id="AOeMsUUUfE1Vvmj0zUNk">
    <mxGraphModel>
      <root>
        <mxCell id="0" />
        <mxCell id="1" parent="0" />
      </root>
    </mxGraphModel>
  </diagram>
</mxfile>
